<svg width="59" height="60" viewBox="0 0 59 60" fill="none" xmlns="http://www.w3.org/2000/svg">
<path d="M10.2431 0.5C7.52643 0.5 4.92107 1.57918 3.00012 3.50012C1.07918 5.42106 0 8.02642 0 10.743V49.2569C0 51.4793 0.708 53.5344 1.90931 55.2143L25.4437 31.6798C25.9764 31.1471 26.6088 30.7246 27.3047 30.4363C28.0007 30.148 28.7467 29.9996 29.5 29.9996C30.2533 29.9996 30.9993 30.148 31.6952 30.4363C32.3912 30.7246 33.0236 31.1471 33.5562 31.6798L57.0907 55.2143C58.3358 53.4777 59.0037 51.3937 59 49.2569V10.743C59 8.02642 57.9208 5.42106 55.9999 3.50012C54.0789 1.57918 51.4736 0.5 48.7569 0.5H10.2431ZM46.7083 19.3472C46.7083 21.0859 46.0177 22.7533 44.7882 23.9827C43.5588 25.2121 41.8914 25.9028 40.1528 25.9028C38.4141 25.9028 36.7467 25.2121 35.5173 23.9827C34.2879 22.7533 33.5972 21.0859 33.5972 19.3472C33.5972 17.6086 34.2879 15.9411 35.5173 14.7117C36.7467 13.4823 38.4141 12.7917 40.1528 12.7917C41.8914 12.7917 43.5588 13.4823 44.7882 14.7117C46.0177 15.9411 46.7083 17.6086 46.7083 19.3472ZM54.0866 58.0053L30.6587 34.5774C30.3514 34.2702 29.9346 34.0976 29.5 34.0976C29.0654 34.0976 28.6486 34.2702 28.3413 34.5774L4.91339 58.0053C6.51739 58.9871 8.36241 59.5046 10.2431 59.5H48.7569C50.6376 59.5046 52.4826 58.9871 54.0866 58.0053Z" fill="white" fill-opacity="0.6"/>
</svg>
