<svg width="37" height="37" viewBox="0 0 37 37" fill="none" xmlns="http://www.w3.org/2000/svg">
<rect x="0.5" y="0.5" width="36" height="36" rx="3.5" fill="#BD00FD" fill-opacity="0.15"/>
<rect x="0.5" y="0.5" width="36" height="36" rx="3.5" stroke="#BD00FD"/>
<path d="M19.3392 11.0635L15.4392 25.6135L16.6482 25.9375L20.5462 11.3875L19.3402 11.0625L19.3392 11.0635ZM13.7092 14.4975L10.3982 17.5875C10.2726 17.7036 10.1724 17.8444 10.1039 18.0011C10.0354 18.1578 10 18.327 10 18.498C10 18.669 10.0354 18.8382 10.1039 18.9949C10.1724 19.1516 10.2726 19.2924 10.3982 19.4085L13.6482 22.4995L14.5692 21.6495L11.2482 18.4995L14.5692 15.3875L13.7092 14.4975ZM25.6022 17.5885L22.2922 14.4975L21.4312 15.4075L24.7512 18.4985L21.4312 21.6095L22.3512 22.4595L25.6022 19.4095C25.7278 19.2934 25.828 19.1526 25.8965 18.9959C25.9651 18.8392 26.0004 18.67 26.0004 18.499C26.0004 18.328 25.9651 18.1588 25.8965 18.0021C25.828 17.8454 25.7278 17.7046 25.6022 17.5885Z" fill="#A9A8AE"/>
</svg>
