<svg width="301" height="300" viewBox="0 0 301 300" fill="none" xmlns="http://www.w3.org/2000/svg">
<g style="mix-blend-mode:hard-light" filter="url(#filter0_f_735_635)">
<circle cx="150.441" cy="150" r="90" fill="#8F00FF" fill-opacity="0.2"/>
</g>
<g style="mix-blend-mode:hard-light" filter="url(#filter1_f_735_635)">
<path d="M102.714 77.0312H198.169C204.863 77.0313 211.284 79.6902 216.018 84.4238C220.751 89.1575 223.41 95.5781 223.41 102.272V197.728C223.41 204.422 220.751 210.843 216.018 215.576C211.284 220.31 204.863 222.969 198.169 222.969H102.714C96.0195 222.969 89.5989 220.31 84.8652 215.576C80.1316 210.843 77.4727 204.422 77.4727 197.728V102.272C77.4727 95.5781 80.1316 89.1575 84.8652 84.4238C89.5989 79.6902 96.0195 77.0313 102.714 77.0312ZM150.441 93.4229C135.436 93.4229 121.046 99.3839 110.436 109.994C99.8254 120.604 93.8643 134.995 93.8643 150C93.8643 165.005 99.8254 179.396 110.436 190.006C121.046 200.616 135.436 206.577 150.441 206.577C165.446 206.577 179.837 200.616 190.447 190.006C201.057 179.396 207.019 165.005 207.019 150C207.019 134.995 201.057 120.604 190.447 109.994C179.837 99.384 165.446 93.4229 150.441 93.4229ZM162.847 174.961L142.722 158.752L161.479 141.926L161.499 141.908C161.926 141.515 162.218 141 162.337 140.437L162.377 140.192C162.456 139.534 162.297 138.869 161.929 138.317L161.919 138.303L161.908 138.288L161.758 138.09C161.44 137.709 161.025 137.421 160.558 137.254L160.32 137.181L160.076 137.129C159.505 137.035 158.916 137.12 158.394 137.378L158.377 137.387L158.359 137.396L128.639 152.743L116.668 148.374L174.404 126.363L162.847 174.961Z" stroke="#CC00FF" stroke-width="4.0625"/>
</g>
<g style="mix-blend-mode:hard-light" filter="url(#filter2_f_735_635)">
<path d="M102.714 77.6562H198.169C204.698 77.6563 210.959 80.2498 215.575 84.8662C220.192 89.4826 222.785 95.7439 222.785 102.272V197.728C222.785 204.256 220.192 210.517 215.575 215.134C210.959 219.75 204.698 222.344 198.169 222.344H102.714C96.1853 222.344 89.924 219.75 85.3076 215.134C80.6912 210.517 78.0977 204.256 78.0977 197.728V102.272C78.0977 95.7439 80.6912 89.4826 85.3076 84.8662C89.924 80.2498 96.1853 77.6563 102.714 77.6562ZM150.441 92.7979C135.271 92.7979 120.722 98.8253 109.994 109.553C99.2667 120.28 93.2393 134.829 93.2393 150C93.2393 165.171 99.2667 179.72 109.994 190.447C120.722 201.175 135.271 207.202 150.441 207.202C165.612 207.202 180.161 201.175 190.889 190.447C201.616 179.72 207.644 165.171 207.644 150C207.644 134.829 201.616 120.28 190.889 109.553C180.161 98.8253 165.612 92.7979 150.441 92.7979ZM162.468 173.853L143.686 158.727L161.897 142.391L161.909 142.38L161.922 142.368C162.519 141.818 162.901 141.073 162.997 140.267C163.094 139.46 162.899 138.646 162.448 137.971L162.436 137.951L162.422 137.932C161.957 137.261 161.266 136.78 160.477 136.575C159.687 136.371 158.85 136.457 158.118 136.817L158.095 136.828L158.072 136.84L128.596 152.062L118.456 148.361L173.523 127.367L162.468 173.853Z" stroke="#CC00FF" stroke-width="5.3125"/>
</g>
<g style="mix-blend-mode:hard-light" filter="url(#filter3_ddi_735_635)">
<path d="M102.714 77.0312H198.169C204.863 77.0313 211.284 79.6902 216.018 84.4238C220.751 89.1575 223.41 95.5781 223.41 102.272V197.728C223.41 204.422 220.751 210.843 216.018 215.576C211.284 220.31 204.863 222.969 198.169 222.969H102.714C96.0195 222.969 89.5989 220.31 84.8652 215.576C80.1316 210.843 77.4727 204.422 77.4727 197.728V102.272C77.4727 95.5781 80.1316 89.1575 84.8652 84.4238C89.5989 79.6902 96.0195 77.0313 102.714 77.0312ZM150.441 93.4229C135.436 93.4229 121.046 99.3839 110.436 109.994C99.8254 120.604 93.8643 134.995 93.8643 150C93.8643 165.005 99.8254 179.396 110.436 190.006C121.046 200.616 135.436 206.577 150.441 206.577C165.446 206.577 179.837 200.616 190.447 190.006C201.057 179.396 207.019 165.005 207.019 150C207.019 134.995 201.057 120.604 190.447 109.994C179.837 99.384 165.446 93.4229 150.441 93.4229ZM162.847 174.961L142.722 158.752L161.479 141.926L161.499 141.908C161.926 141.515 162.218 141 162.337 140.437L162.377 140.192C162.456 139.534 162.297 138.869 161.929 138.317L161.919 138.303L161.908 138.288L161.758 138.09C161.44 137.709 161.025 137.421 160.558 137.254L160.32 137.181L160.076 137.129C159.505 137.035 158.916 137.12 158.394 137.378L158.377 137.387L158.359 137.396L128.639 152.743L116.668 148.374L174.404 126.363L162.847 174.961Z" stroke="#6100FF" stroke-opacity="0.2" stroke-width="4.0625"/>
</g>
<g filter="url(#filter4_f_735_635)">
<path d="M102.714 76.25H198.169C205.07 76.2501 211.689 78.9919 216.569 83.8721C221.449 88.7522 224.191 95.3709 224.191 102.272V197.728C224.191 204.629 221.449 211.248 216.569 216.128C211.689 221.008 205.07 223.75 198.169 223.75H102.714C95.8123 223.75 89.1936 221.008 84.3135 216.128C79.4333 211.248 76.6915 204.629 76.6914 197.728V102.272C76.6915 95.3709 79.4333 88.7522 84.3135 83.8721C89.1936 78.9919 95.8123 76.2501 102.714 76.25ZM150.441 94.2041C135.644 94.2041 121.452 100.083 110.988 110.547C100.525 121.011 94.6455 135.202 94.6455 150C94.6455 164.798 100.525 178.989 110.988 189.453C121.452 199.917 135.644 205.796 150.441 205.796C165.239 205.796 179.431 199.917 189.895 189.453C200.358 178.989 206.237 164.798 206.237 150C206.237 135.202 200.358 121.011 189.895 110.547C179.431 100.083 165.239 94.2041 150.441 94.2041ZM163.32 176.345L141.516 158.785L160.958 141.344L160.964 141.339L161.096 141.207C161.374 140.901 161.552 140.514 161.602 140.1C161.658 139.626 161.544 139.148 161.279 138.752L161.272 138.742L161.267 138.733L161.158 138.591C160.891 138.271 160.53 138.042 160.124 137.937C159.66 137.816 159.169 137.867 158.739 138.079L158.729 138.084L158.718 138.09L128.692 153.594L114.437 148.392C114.435 148.391 114.435 148.39 114.434 148.39L175.49 125.113C175.495 125.112 175.501 125.112 175.506 125.112L163.32 176.345Z" stroke="#C882FF" stroke-width="2.5"/>
</g>
<g filter="url(#filter5_f_735_635)">
<path d="M102.714 75.625H198.169C205.236 75.6251 212.014 78.4323 217.012 83.4297C222.009 88.427 224.816 95.2051 224.816 102.272V197.728C224.816 204.795 222.009 211.573 217.012 216.57C212.014 221.568 205.236 224.375 198.169 224.375H102.714C95.6465 224.375 88.8684 221.568 83.8711 216.57C78.8737 211.573 76.0665 204.795 76.0664 197.728V102.272C76.0665 95.2051 78.8737 88.427 83.8711 83.4297C88.8684 78.4323 95.6465 75.6251 102.714 75.625ZM150.441 94.8291C135.809 94.8291 121.776 100.642 111.43 110.988C101.083 121.335 95.2705 135.368 95.2705 150C95.2705 164.632 101.083 178.665 111.43 189.012C121.776 199.358 135.809 205.171 150.441 205.171C165.074 205.171 179.107 199.358 189.453 189.012C199.8 178.665 205.612 164.632 205.612 150C205.612 135.368 199.8 121.335 189.453 110.988C179.107 100.642 165.074 94.8291 150.441 94.8291ZM175.624 124.498C175.71 124.514 175.791 124.546 175.864 124.593L175.935 124.645C176.087 124.78 176.167 125.019 176.117 125.242L163.927 176.501L163.926 176.506C163.903 176.604 163.857 176.695 163.79 176.771C163.723 176.846 163.638 176.903 163.544 176.938L163.536 176.94C163.443 176.976 163.341 176.988 163.242 176.975H163.241C163.142 176.961 163.048 176.922 162.967 176.863L140.551 158.811L160.541 140.879L160.633 140.787C160.824 140.576 160.946 140.31 160.98 140.025C161.019 139.7 160.941 139.371 160.759 139.099L160.753 139.089L160.678 138.991C160.494 138.772 160.246 138.614 159.968 138.542C159.649 138.459 159.311 138.494 159.016 138.64L159.005 138.645L128.735 154.275L114.192 148.968C114.076 148.918 113.975 148.837 113.903 148.733C113.831 148.629 113.79 148.507 113.784 148.381C113.789 148.137 113.962 147.897 114.177 147.819L114.187 147.815L175.285 124.522C175.394 124.485 175.511 124.477 175.624 124.498Z" stroke="white" stroke-width="1.25"/>
</g>
<defs>
<filter id="filter0_f_735_635" x="41.6914" y="41.25" width="217.5" height="217.5" filterUnits="userSpaceOnUse" color-interpolation-filters="sRGB">
<feFlood flood-opacity="0" result="BackgroundImageFix"/>
<feBlend mode="normal" in="SourceGraphic" in2="BackgroundImageFix" result="shape"/>
<feGaussianBlur stdDeviation="9.375" result="effect1_foregroundBlur_735_635"/>
</filter>
<filter id="filter1_f_735_635" x="56.6914" y="56.25" width="187.5" height="187.5" filterUnits="userSpaceOnUse" color-interpolation-filters="sRGB">
<feFlood flood-opacity="0" result="BackgroundImageFix"/>
<feBlend mode="normal" in="SourceGraphic" in2="BackgroundImageFix" result="shape"/>
<feGaussianBlur stdDeviation="9.375" result="effect1_foregroundBlur_735_635"/>
</filter>
<filter id="filter2_f_735_635" x="69.1914" y="68.75" width="162.5" height="162.5" filterUnits="userSpaceOnUse" color-interpolation-filters="sRGB">
<feFlood flood-opacity="0" result="BackgroundImageFix"/>
<feBlend mode="normal" in="SourceGraphic" in2="BackgroundImageFix" result="shape"/>
<feGaussianBlur stdDeviation="3.125" result="effect1_foregroundBlur_735_635"/>
</filter>
<filter id="filter3_ddi_735_635" x="67.3164" y="73.125" width="166.25" height="166.25" filterUnits="userSpaceOnUse" color-interpolation-filters="sRGB">
<feFlood flood-opacity="0" result="BackgroundImageFix"/>
<feColorMatrix in="SourceAlpha" type="matrix" values="0 0 0 0 0 0 0 0 0 0 0 0 0 0 0 0 0 0 127 0" result="hardAlpha"/>
<feOffset dy="4.0625"/>
<feGaussianBlur stdDeviation="1.5625"/>
<feColorMatrix type="matrix" values="0 0 0 0 0.055 0 0 0 0 0 0 0 0 0 0.082 0 0 0 0.7 0"/>
<feBlend mode="multiply" in2="BackgroundImageFix" result="effect1_dropShadow_735_635"/>
<feColorMatrix in="SourceAlpha" type="matrix" values="0 0 0 0 0 0 0 0 0 0 0 0 0 0 0 0 0 0 127 0" result="hardAlpha"/>
<feOffset dy="6.25"/>
<feGaussianBlur stdDeviation="4.0625"/>
<feColorMatrix type="matrix" values="0 0 0 0 0.514 0 0 0 0 0 0 0 0 0 0.756 0 0 0 1 0"/>
<feBlend mode="color-dodge" in2="effect1_dropShadow_735_635" result="effect2_dropShadow_735_635"/>
<feBlend mode="normal" in="SourceGraphic" in2="effect2_dropShadow_735_635" result="shape"/>
<feColorMatrix in="SourceAlpha" type="matrix" values="0 0 0 0 0 0 0 0 0 0 0 0 0 0 0 0 0 0 127 0" result="hardAlpha"/>
<feOffset dx="-0.40625" dy="0.8125"/>
<feGaussianBlur stdDeviation="0.203125"/>
<feComposite in2="hardAlpha" operator="arithmetic" k2="-1" k3="1"/>
<feColorMatrix type="matrix" values="0 0 0 0 1 0 0 0 0 1 0 0 0 0 1 0 0 0 0.5 0"/>
<feBlend mode="normal" in2="shape" result="effect3_innerShadow_735_635"/>
</filter>
<filter id="filter4_f_735_635" x="74.8164" y="74.375" width="151.25" height="151.25" filterUnits="userSpaceOnUse" color-interpolation-filters="sRGB">
<feFlood flood-opacity="0" result="BackgroundImageFix"/>
<feBlend mode="normal" in="SourceGraphic" in2="BackgroundImageFix" result="shape"/>
<feGaussianBlur stdDeviation="0.3125" result="effect1_foregroundBlur_735_635"/>
</filter>
<filter id="filter5_f_735_635" x="75.0247" y="74.5833" width="150.833" height="150.833" filterUnits="userSpaceOnUse" color-interpolation-filters="sRGB">
<feFlood flood-opacity="0" result="BackgroundImageFix"/>
<feBlend mode="normal" in="SourceGraphic" in2="BackgroundImageFix" result="shape"/>
<feGaussianBlur stdDeviation="0.208333" result="effect1_foregroundBlur_735_635"/>
</filter>
</defs>
</svg>
